<?xml version="1.0" encoding="utf-8"?>
<!-- Generator: Adobe Illustrator 27.5.0, SVG Export Plug-In . SVG Version: 6.00 Build 0)  -->
<svg version="1.1" xmlns="http://www.w3.org/2000/svg" xmlns:xlink="http://www.w3.org/1999/xlink" x="0px" y="0px"
	 viewBox="0 0 3710 3710" style="enable-background:new 0 0 3710 3710;" xml:space="preserve">
<g id="Background">
	<g>
		<g>
			<rect style="fill:#FFFFFF;" width="3710" height="3710"/>
		</g>
	</g>
</g>
<g id="Illustration">
	<g>
		<path style="fill:#F4F7FA;" d="M1078.786,629.157C982.099,769.052,1095.466,995.856,952,1101.069
			c-139.654,102.416-311.215-65.458-442.83,22.702c-195.243,130.78-159.589,729.204,125.868,1101.017
			c85.846,111.816,157.576,155.323,189.345,281.783c68.217,271.541-171.531,433.07-125.907,567.37
			c102.728,302.393,1682.612,556.137,2316.532-352.656c296.066-424.444,340.364-1037.345,75.838-1502.846
			C2612.851,377.285,1295.735,315.257,1078.786,629.157z"/>
		<g>
			
				<linearGradient id="SVGID_1_" gradientUnits="userSpaceOnUse" x1="-3072.478" y1="235.7319" x2="-2005.1393" y2="-1466.9268" gradientTransform="matrix(0.9593 -0.2824 0.2824 0.9593 4003.0415 841.6242)">
				<stop  offset="0.0036" style="stop-color:#E38DDD"/>
				<stop  offset="1" style="stop-color:#9571F6"/>
			</linearGradient>
			<path style="fill:url(#SVGID_1_);" d="M1156.934,2575.855c56.357,12.213,151.233,32.773,251.806-9.064
				c182.845-76.062,265.827-308.987,266.444-486.271c0.531-152.28-76.424-294.334-230.334-578.445
				c-144.952-267.577-212.424-326.698-183.065-424.324c41.853-139.176,221.331-159.833,245.813-329.515
				c2.936-20.362,13.027-90.295-27.514-141.363c-69.397-87.421-238.455-58.203-331.759-19.122
				c-89.999,37.696-215.116,128.797-227.972,251.738c-9.315,89.074,48.213,119.192,23.306,191.998
				c-25.059,73.253-90.852,64.86-176.852,160.42c-34.357,38.176-103.321,114.807-106.818,211.928
				c-4.522,125.58,104.501,171.738,77.868,263.396c-19.242,66.225-82.454,63.78-119.301,132.326
				c-48.508,90.24,1.938,204.429,45.188,298.893C714.674,2209.688,852.072,2509.79,1156.934,2575.855z"/>
			<path style="opacity:0.16;fill:#FFFFFF;" d="M1424.385,625.59c28.112,62.255-200.139,128.16-278.483,348.39
				c-84.294,236.958,56.381,508.017,121.393,633.281c110.917,213.722,199.531,235.452,239.545,425.481
				c15.837,75.209,48.831,231.895-45.302,365.677c-8.745,12.43-108.316,149.546-261.015,151.316
				c-173.203,2.01-283.069-171.642-377.739-321.267c-57.203-90.412-171.475-271.021-105.289-354.855
				c40.46-51.249,139.041-54.531,205.5-32.791c94.858,31.027,137.275,117.276,153.5,107.264
				c14.614-9.017-5.741-87.665-52.116-164.644c-92.76-153.972-194.787-143.842-255.521-271.813
				c-7.362-15.511-63.908-139.262-5.381-241.44c33.755-58.931,106.668-112.218,160.861-95.956
				c61.291,18.392,72.184,117.808,91.384,113.769c18.36-3.861,19.554-97.102,7.276-189.427
				c-18.042-135.656-50.139-156.297-42.371-230.714c11.853-113.536,99.282-187.274,112.002-197.695
				C1211.824,572.53,1400.35,572.365,1424.385,625.59z"/>
		</g>
		<g>
			
				<linearGradient id="SVGID_00000141449912661830901750000010030321110937001650_" gradientUnits="userSpaceOnUse" x1="-3763.5928" y1="1068.2704" x2="-2470.8513" y2="1068.2704" gradientTransform="matrix(0.9974 0.0721 -0.0721 0.9974 4164.7925 947.6609)">
				<stop  offset="0" style="stop-color:#AA80F9"/>
				<stop  offset="0.9964" style="stop-color:#6165D7"/>
			</linearGradient>
			<path style="fill:url(#SVGID_00000141449912661830901750000010030321110937001650_);" d="M1306.981,2655.917
				c51.304-13.712,137.674-36.797,202.452-113.392c117.769-139.252,87.721-364.974,13.621-510.456
				c-63.648-124.963-186.467-208.941-432.103-376.901c-231.341-158.186-311.49-178.221-328.525-270.546
				c-24.285-131.619,114.041-224.069,62.688-373.367c-6.163-17.915-27.328-79.448-82.027-104.22
				c-93.636-42.406-219.823,52.672-279.808,123.95c-57.86,68.753-122.011,196.031-80.804,302.149
				c29.855,76.885,89.652,77.346,99.889,147.467c10.3,70.551-47.126,91.363-77.358,205.832
				c-12.078,45.73-36.321,137.525,1.685,218.553c49.143,104.771,157.875,96.702,174.63,182.991
				c12.107,62.346-40.701,86.945-42.038,158.6c-1.761,94.333,87.617,166.643,162.798,225.822
				C790.61,2542.087,1029.451,2730.094,1306.981,2655.917z"/>
			<path style="opacity:0.16;fill:#FFFFFF;" d="M705.337,945.808c49.226,39.166-110.011,189.206-81.507,402.577
				c30.669,229.577,259.972,392.415,365.941,467.667c180.798,128.393,262.531,108.902,375.277,247.725
				c44.623,54.943,137.588,169.408,116.778,318.608c-1.933,13.862-25.794,168.083-150.132,233.793
				c-141.033,74.535-304.107-21.477-444.622-104.203c-84.906-49.989-254.518-149.846-235.58-246.371
				c11.577-59.007,90.947-103.181,154.537-113.341c90.76-14.503,161.801,38.297,170.879,23.269
				c8.176-13.536-41.595-69.395-111.977-112.936c-140.779-87.09-220.092-35.856-323.697-115.126
				c-12.558-9.607-110.956-87.182-106.012-195.51c2.851-62.478,40.153-136.812,91.388-146.297
				c57.947-10.727,108.707,66.126,122.735,54.737c13.414-10.889-24.845-87.77-73.756-158.231
				c-71.867-103.53-106.846-106.931-131.799-171.159c-38.07-97.991,2.517-195.186,8.551-209.075
				C508.889,991.795,663.25,912.323,705.337,945.808z"/>
		</g>
		<g>
			<g>
				<path style="fill:#97A6B7;" d="M2103.223,3204.099c-36.144-11.989-63.159-42.664-70.777-80.367l-52.607-260.367l-450.014,15.98
					l-55.383,271.244c-7.757,37.988,23.293,76.098,59.053,90.089l188.276,73.666c35.018,13.702,72.66,19.159,110.072,15.958
					l397.894-34.039c11.632-0.995,20.962-10.138,22.315-21.868c1.354-11.73,9.504-24.901-1.588-28.58L2103.223,3204.099z"/>
				
					<linearGradient id="SVGID_00000044166288385760452910000012020523121179353278_" gradientUnits="userSpaceOnUse" x1="1821.7256" y1="3692.2212" x2="1877.8387" y2="3149.791">
					<stop  offset="0" style="stop-color:#444B8C"/>
					<stop  offset="0.9964" style="stop-color:#26264F"/>
				</linearGradient>
				<path style="fill:url(#SVGID_00000044166288385760452910000012020523121179353278_);" d="M2107.677,3188.264
					c-36.108-11.838-63.096-42.128-70.706-79.357l-52.554-257.094l-439.044,15.796l-55.328,267.834
					c-7.749,37.51,12.753,75.125,48.477,88.94l188.087,72.74c34.983,13.529,72.587,18.918,109.961,15.757l397.494-33.611
					c11.62-0.983,20.94-10.011,22.293-21.594c1.352-11.583-5.638-22.515-16.719-26.148L2107.677,3188.264z"/>
			</g>
			<g>
				<g>
					
						<linearGradient id="SVGID_00000075134726420003928150000008026182554209921974_" gradientUnits="userSpaceOnUse" x1="1432.3104" y1="2178.7405" x2="840.0004" y2="2247.3235">
						<stop  offset="0" style="stop-color:#444B8C"/>
						<stop  offset="0.3946" style="stop-color:#383C74"/>
						<stop  offset="0.9964" style="stop-color:#26264F"/>
					</linearGradient>
					<path style="fill:url(#SVGID_00000075134726420003928150000008026182554209921974_);" d="M610.286,3036.418
						c-48.801,2.909-88.725-28.75-88.725-70.588V1457.884c0-41.838,39.924-74.147,88.725-72.033l2256.844,97.787
						c35.828,1.552,64.839,31.759,64.839,67.342v1282.497c0,35.583-29.011,66.262-64.839,68.399L610.286,3036.418z"/>
					
						<linearGradient id="SVGID_00000126323488293936237980000015977934517008402089_" gradientUnits="userSpaceOnUse" x1="2440.3706" y1="1091.0211" x2="850.4897" y2="3510.1318">
						<stop  offset="0" style="stop-color:#444B8C"/>
						<stop  offset="0.9964" style="stop-color:#26264F"/>
					</linearGradient>
					<path style="fill:url(#SVGID_00000126323488293936237980000015977934517008402089_);" d="M630.568,3036.418
						c-48.801,2.909-88.725-28.75-88.725-70.588V1457.884c0-41.838,39.924-74.147,88.725-72.033l2256.844,97.787
						c35.828,1.552,64.839,31.759,64.839,67.342v1282.497c0,35.583-29.011,66.262-64.839,68.399L630.568,3036.418z"/>
					<path style="opacity:0.3;fill:#D8DEE8;" d="M2887.412,1513.82l-2256.844-92.843c-26.089-1.073-47.301,16.165-47.301,38.506
						v1172.785v331.286c0,22.342,21.211,39.233,47.301,37.736l2256.844-129.598c19.203-1.103,34.732-17.471,34.732-36.563v-293.174
						v-992.138C2922.144,1530.726,2906.616,1514.61,2887.412,1513.82z"/>
					
						<linearGradient id="SVGID_00000132058515731728234620000010425523462188823427_" gradientUnits="userSpaceOnUse" x1="2236.8833" y1="1399.7107" x2="378.9079" y2="4124.3301">
						<stop  offset="0" style="stop-color:#FFC444"/>
						<stop  offset="0.9964" style="stop-color:#F36F56"/>
					</linearGradient>
					<path style="fill:url(#SVGID_00000132058515731728234620000010425523462188823427_);" d="M630.568,2873.186
						c-10.157,0.502-18.429-6.16-18.429-14.849V1460.599c0-8.689,8.273-15.433,18.429-15.03l2256.844,89.381
						c7.49,0.297,13.579,6.601,13.579,14.051v1198.436c0,7.45-6.089,13.814-13.579,14.184L630.568,2873.186z"/>
				</g>
				<path style="opacity:0.6;fill:#FFFFFF;" d="M2651.807,2808.537c-189.867-117.448-57.251-451.382-270.477-619.164
					c-214.972-169.156-517.463,38.313-668.046-136.868c-112.123-130.437,19.072-287.935-87.987-410.604
					c-167.891-192.372-597.679,72.203-795.137-117.315c-28.036-26.908-56.327-67.731-72.428-133.225l-127.165-5.51
					c-48.801-2.115-88.725,30.195-88.725,72.033V2965.83c0,41.839,39.924,73.497,88.725,70.588l2256.844-134.542
					c35.828-2.136,64.839-32.815,64.839-68.399v-22.801C2802.397,2861.526,2710.786,2845.021,2651.807,2808.537z"/>
			</g>
			<g>
				<g>
					<path style="fill:#FFFFFF;" d="M2663.589,2684.612V971.621L999.256,888.389v1889.284c0,42.548-30.831,78.828-72.822,85.692h0
						l1647.724-83.234C2624.474,2776.815,2663.589,2735.036,2663.589,2684.612z"/>
				</g>
				<g>
					<g>
						<g>
							
								<linearGradient id="SVGID_00000039833614078959742500000016098614776814110889_" gradientUnits="userSpaceOnUse" x1="1475.3958" y1="677.1754" x2="2400.2747" y2="1500.7898">
								<stop  offset="0" style="stop-color:#FFC444"/>
								<stop  offset="0.9964" style="stop-color:#F36F56"/>
							</linearGradient>
							<path style="fill:url(#SVGID_00000039833614078959742500000016098614776814110889_);" d="M2214.491,640.521l-704.148-29.064
								c-28.678-1.183-51.96,19.992-51.96,47.319v691.931c0,27.326,23.282,49.663,51.96,49.91l704.148,6.052
								c26.967,0.232,48.767-20.982,48.767-47.399V690.353C2263.258,663.935,2241.458,641.635,2214.491,640.521L2214.491,640.521z"
								/>
							<path style="opacity:0.7;fill:#FFFFFF;" d="M1510.341,1378.466c-15.768-0.15-28.612-12.491-28.612-27.51V659.692
								c0-15.019,12.845-26.719,28.612-26.083l704.15,28.418c14.842,0.599,26.905,12.921,26.905,27.467v669.544
								c0,14.547-12.063,26.267-26.905,26.126L1510.341,1378.466z"/>
							<g style="opacity:0.3;">
								
									<linearGradient id="SVGID_00000079454025585764166130000002021911438745369217_" gradientUnits="userSpaceOnUse" x1="2164.8982" y1="438.4236" x2="1336.8379" y2="1849.4401">
									<stop  offset="0" style="stop-color:#FFC444"/>
									<stop  offset="0.9964" style="stop-color:#F36F56"/>
								</linearGradient>
								<path style="fill:url(#SVGID_00000079454025585764166130000002021911438745369217_);" d="M1756.719,1129.43
									c-45.944-109.634,94.48-194.285,63.663-339.858c-14.778-69.807-62.909-126.076-118.633-170.214l-191.406-7.901
									c-28.678-1.184-51.96,19.992-51.96,47.319v691.931c0,27.326,23.281,49.663,51.96,49.91l671.115,5.768
									c-14.428-22.814-31.64-44.514-52.197-64.445C1993.208,1210.021,1805.993,1247.007,1756.719,1129.43z"/>
							</g>
						</g>
						<g>
							<path style="fill:#FFFFFF;" d="M1808.605,1111.29c0-35.132,4.118-62.767,12.351-82.896
								c8.227-20.116,21.553-37.381,39.96-51.79c18.379-14.387,32.331-27.615,41.87-39.694
								c9.532-12.069,14.295-25.525,14.295-40.376c0-36.169-16.091-54.773-48.338-55.814c-14.913-0.481-26.982,4.416-36.197,14.698
								c-9.222,10.29-14.085,24.45-14.584,42.474l-127.149-3.788c0.505-48.347,16.377-85.479,47.557-111.347
								c31.099-25.8,74.601-37.663,130.372-35.644c55.263,2,97.897,15.853,128.037,41.518
								c30.063,25.599,45.066,61.01,45.066,106.282c0,19.777-4.04,37.651-12.123,53.631c-8.089,15.99-21.093,32.22-39.026,48.698
								l-42.486,37.298c-12.096,10.957-20.497,22.309-25.194,34.054c-4.699,11.749-7.296,26.723-7.791,44.918L1808.605,1111.29z
								 M1793.242,1220.766c0-17.818,6.685-32.328,20.044-43.52c13.344-11.18,29.971-16.578,49.869-16.204
								c19.864,0.373,36.413,6.377,49.66,18.003c13.232,11.613,19.843,26.271,19.843,43.985c0,17.714-6.611,32.157-19.843,43.34
								c-13.247,11.196-29.796,16.662-49.66,16.39c-19.898-0.272-36.525-6.21-49.869-17.823
								C1799.927,1253.311,1793.242,1238.584,1793.242,1220.766z"/>
						</g>
						
							<linearGradient id="SVGID_00000031189737174722233350000004443588991323885500_" gradientUnits="userSpaceOnUse" x1="1301.1879" y1="911.941" x2="2192.5154" y2="1705.6776">
							<stop  offset="0" style="stop-color:#FFC444"/>
							<stop  offset="0.9964" style="stop-color:#F36F56"/>
						</linearGradient>
						<path style="fill:url(#SVGID_00000031189737174722233350000004443588991323885500_);" d="M1841.85,1474.696l-53.541-71.689
							l158.108,1.359l-53.071,70.619C1880.677,1491.843,1854.561,1491.715,1841.85,1474.696z"/>
					</g>
					<g>
						<polygon style="fill:#D8DEE8;" points="2483.987,1658.64 1217.583,1661.398 1217.583,1561.347 2483.987,1563.773 						"/>
						
							<linearGradient id="SVGID_00000111188432074678757440000010481031418608332474_" gradientUnits="userSpaceOnUse" x1="1803.6921" y1="2254.9624" x2="1519.0906" y2="1808.088">
							<stop  offset="0.0036" style="stop-color:#6165D7"/>
							<stop  offset="1" style="stop-color:#AA80F9"/>
						</linearGradient>
						<path style="fill:url(#SVGID_00000111188432074678757440000010481031418608332474_);" d="M1806.994,1908.971l-560.383,7.067
							c-16.023,0.202-29.028-11.872-29.028-26.968v-136.271c0-15.096,13.005-27.397,29.028-27.474l560.383-2.689
							c15.276-0.073,27.645,11.797,27.645,26.512v132.831C1834.639,1896.693,1822.27,1908.778,1806.994,1908.971z"/>
						<path style="fill:#D8DEE8;" d="M2457.829,1900.763l-529.878,6.682c-15.141,0.191-27.429-11.55-27.429-26.225v-132.463
							c0-14.675,12.288-26.629,27.429-26.702l529.878-2.543c14.454-0.07,26.158,11.478,26.158,25.792v129.211
							C2483.987,1888.829,2472.283,1900.581,2457.829,1900.763z"/>
						<polygon style="fill:#D8DEE8;" points="2483.987,2056.047 1217.583,2080.521 1217.583,1980.47 2483.987,1961.18 						"/>
						<path style="fill:#D8DEE8;" d="M1806.994,2317.987l-560.383,16.677c-16.023,0.477-29.028-11.374-29.028-26.47v-136.271
							c0-15.096,13.005-27.619,29.028-27.971l560.383-12.299c15.276-0.335,27.645,11.322,27.645,26.037v132.831
							C1834.639,2305.235,1822.27,2317.532,1806.994,2317.987z"/>
						<polygon style="fill:#D8DEE8;" points="2483.987,2453.454 1217.583,2499.645 1217.583,2399.594 2483.987,2358.587 						"/>
						<path style="fill:#D8DEE8;" d="M1806.994,2727.003l-560.383,26.286c-16.023,0.751-29.028-10.876-29.028-25.973v-136.271
							c0-15.096,13.005-27.843,29.028-28.469l560.383-21.908c15.276-0.597,27.645,10.848,27.645,25.563v132.831
							C1834.639,2713.777,1822.27,2726.286,1806.994,2727.003z"/>
						
							<linearGradient id="SVGID_00000089571967213334374700000014645849515154634389_" gradientUnits="userSpaceOnUse" x1="2114.0964" y1="2057.0242" x2="2269.8738" y2="2373.2295">
							<stop  offset="0" style="stop-color:#FF9085"/>
							<stop  offset="1" style="stop-color:#FB6FBB"/>
						</linearGradient>
						<path style="fill:url(#SVGID_00000089571967213334374700000014645849515154634389_);" d="M2457.829,2298.618l-529.878,15.769
							c-15.141,0.451-27.429-11.08-27.429-25.754V2156.17c0-14.675,12.288-26.84,27.429-27.172l529.878-11.629
							c14.454-0.317,26.158,11.03,26.158,25.344v129.21C2483.987,2286.236,2472.283,2298.188,2457.829,2298.618z"/>
						
							<linearGradient id="SVGID_00000151540841735451185570000012794534021135861917_" gradientUnits="userSpaceOnUse" x1="2115.7778" y1="2462.8469" x2="2268.1724" y2="2772.1853">
							<stop  offset="0" style="stop-color:#FF9085"/>
							<stop  offset="1" style="stop-color:#FB6FBB"/>
						</linearGradient>
						<path style="fill:url(#SVGID_00000151540841735451185570000012794534021135861917_);" d="M2457.829,2696.473l-529.878,24.856
							c-15.141,0.71-27.429-10.609-27.429-25.284v-132.464c0-14.675,12.288-27.051,27.429-27.643l529.878-20.716
							c14.454-0.565,26.158,10.581,26.158,24.896v129.21C2483.987,2683.643,2472.283,2695.796,2457.829,2696.473z"/>
					</g>
				</g>
			</g>
		</g>
		<g>
			
				<linearGradient id="SVGID_00000094592255094289348720000007385490591406854311_" gradientUnits="userSpaceOnUse" x1="-2736.3506" y1="3758.4246" x2="-2619.127" y2="3758.4246" gradientTransform="matrix(0.996 0.0897 -0.0897 0.996 5804.9893 -160.4537)">
				<stop  offset="0" style="stop-color:#444B8C"/>
				<stop  offset="0.9964" style="stop-color:#26264F"/>
			</linearGradient>
			<path style="fill:url(#SVGID_00000094592255094289348720000007385490591406854311_);" d="M2852.056,3320.143
				c6.082,5.592,6.467,18.652,6.717,27.188c0.115,3.814,0.17,5.721-0.336,7.036c-3.688,9.582-22.699,9.454-52.601,10.679
				c-47.253,1.936-61.452,4.78-64.703-2.432c-3.044-6.76,5.945-16.975,6.954-18.1c5.434-6.047,11.768-7.982,23.983-11.193
				c22.6-5.942,37.813-9.022,42.418-9.955C2843.252,3317.535,2848.063,3316.473,2852.056,3320.143z"/>
			
				<linearGradient id="SVGID_00000018948738885822340490000003734042878070747578_" gradientUnits="userSpaceOnUse" x1="-3167.0715" y1="3631.4292" x2="-3115.6414" y2="3524.9802" gradientTransform="matrix(0.9976 0.0694 -0.0694 0.9976 6220.915 -60.6691)">
				<stop  offset="0" style="stop-color:#FFC444"/>
				<stop  offset="0.9964" style="stop-color:#F36F56"/>
			</linearGradient>
			<path style="fill:url(#SVGID_00000018948738885822340490000003734042878070747578_);" d="M2818.915,3273.024l-1.842,53.787
				c1.472,2.515,17.799,9.42,30.083,2.094l9.27-53.27L2818.915,3273.024z"/>
			
				<linearGradient id="SVGID_00000008836358427461192720000004885987308025616557_" gradientUnits="userSpaceOnUse" x1="-3111.5085" y1="4290.5063" x2="-2986.9668" y2="4290.5063" gradientTransform="matrix(0.977 0.2133 -0.2133 0.977 6293.4839 -210.6557)">
				<stop  offset="0" style="stop-color:#444B8C"/>
				<stop  offset="0.9964" style="stop-color:#26264F"/>
			</linearGradient>
			<path style="fill:url(#SVGID_00000008836358427461192720000004885987308025616557_);" d="M2454.021,3312.708
				c8.125,8.064,10.707,23.572,4.445,31.614c-6.154,7.907-16.318,2.766-44.239,5.093c-29.907,2.496-37.351,9.988-58.009,5.459
				c-8.345-1.833-23.165-6.573-23.203-12.46c-0.027-4.14,7.254-6.668,31.51-16.261c34.431-13.616,34.243-14.25,41.621-15.881
				C2424.681,3306.177,2443.29,3302.063,2454.021,3312.708z"/>
			
				<linearGradient id="SVGID_00000004530426310337757270000014389304925169192357_" gradientUnits="userSpaceOnUse" x1="-3329.1995" y1="3987.3442" x2="-3276.6802" y2="3878.6418" gradientTransform="matrix(0.9894 0.1453 -0.1453 0.9894 6286.9556 -128.6684)">
				<stop  offset="0" style="stop-color:#FFC444"/>
				<stop  offset="0.9964" style="stop-color:#F36F56"/>
			</linearGradient>
			<path style="fill:url(#SVGID_00000004530426310337757270000014389304925169192357_);" d="M2432.219,3264.875l-12.356,50.781
				c1.279,2.62,17.03,10.747,29.837,4.382l19.723-49.701L2432.219,3264.875z"/>
			
				<linearGradient id="SVGID_00000135669248545642098870000002342026171797338252_" gradientUnits="userSpaceOnUse" x1="6288.8027" y1="2800.8933" x2="5956.625" y2="2052.0862" gradientTransform="matrix(-0.9986 0.0533 0.0533 0.9986 8499.1162 -19.3005)">
				<stop  offset="0" style="stop-color:#AA80F9"/>
				<stop  offset="0.9964" style="stop-color:#6165D7"/>
			</linearGradient>
			<path style="fill:url(#SVGID_00000135669248545642098870000002342026171797338252_);" d="M2507.265,2163.139
				c6.817,168.081,5.44,357.551-11.106,564.201c-16.35,204.242-44.658,389.511-77.604,552.854
				c19.446,4.135,38.89,8.269,58.335,12.402c46.212-47.946,103.753-122.608,127.969-225.07c15.03-63.594,7.188-95.442,14.73-173.076
				c12.008-123.613,46.166-189.863,79.735-290.818c30.166-90.719,64.469-223.326,77.286-398.816
				C2686.827,2190.925,2597.045,2177.032,2507.265,2163.139z"/>
			
				<linearGradient id="SVGID_00000147899824232387530070000001274241449038303136_" gradientUnits="userSpaceOnUse" x1="6237.2896" y1="2823.7432" x2="5905.1128" y2="2074.9373" gradientTransform="matrix(-0.9986 0.0533 0.0533 0.9986 8499.1162 -19.3005)">
				<stop  offset="0" style="stop-color:#AA80F9"/>
				<stop  offset="0.9964" style="stop-color:#6165D7"/>
			</linearGradient>
			<path style="opacity:0.3;fill:url(#SVGID_00000147899824232387530070000001274241449038303136_);" d="M2534.121,2948.656
				c21.411-84.795,62.661-107.216,64.13-187.255c1.039-56.615-19.306-61.244-17.956-115.434
				c2.048-82.196,50.199-125.294,74.39-176.997c25.548-54.605,35.338-142.314-33.517-288.205
				c51.813,8.018,103.628,16.037,155.442,24.053c-12.817,175.489-47.12,308.097-77.286,398.815
				c-33.57,100.957-67.727,167.207-79.735,290.818c-7.542,77.634,0.3,109.483-14.73,173.075
				c-24.216,102.463-81.757,177.125-127.969,225.072c-4.947-1.053-9.892-2.102-14.837-3.155
				c49.957-59.629,67.585-112.883,72.069-156.094C2541.416,3063.048,2512.534,3034.152,2534.121,2948.656z"/>
			
				<linearGradient id="SVGID_00000088131476754248767120000011137543209316053668_" gradientUnits="userSpaceOnUse" x1="5640.3789" y1="3461.1206" x2="5308.1934" y2="2712.2954" gradientTransform="matrix(-0.9976 -0.0694 -0.0694 0.9976 8422.4297 92.9864)">
				<stop  offset="0" style="stop-color:#AA80F9"/>
				<stop  offset="0.9964" style="stop-color:#6165D7"/>
			</linearGradient>
			<path style="fill:url(#SVGID_00000088131476754248767120000011137543209316053668_);" d="M2701.619,2152.632
				c23.141,212.997,44.412,430.083,63.549,651.146c14.364,165.887,27.154,329.744,38.479,491.512
				c19.71,1.371,39.422,2.745,59.133,4.115c17.04-36.238,39.295-91.438,52.825-161.388c16.433-84.957,8.932-134.487,13.461-221.87
				c5.084-98.008,18.896-120.037,38.804-244.392c40.407-252.376,60.613-378.565-3.47-452.967
				C2943.597,2194.634,2879.226,2134.694,2701.619,2152.632z"/>
			
				<linearGradient id="SVGID_00000080924718908342648480000000214938207890054053_" gradientUnits="userSpaceOnUse" x1="5506.4927" y1="1548.5459" x2="5462.4893" y2="2400.0112" gradientTransform="matrix(-1 0 0 1 8261.5361 0)">
				<stop  offset="0" style="stop-color:#FF9085"/>
				<stop  offset="1" style="stop-color:#FB6FBB"/>
			</linearGradient>
			<path style="fill:url(#SVGID_00000080924718908342648480000000214938207890054053_);" d="M3062.664,2288.575
				c-44.33,45.441-125.152,18.191-277.208,9.9c-116.242-6.337-211.715,1.808-274.558,9.765
				c-9.328-50.295-20.696-120.368-29.05-204.47c-30.436-306.364-50.103-504.324,53.771-610.614
				c150.879-154.388,488.215-39.454,525.809-26.174c-47.782,289.079-24.476,491.926,7.836,626.888
				C3082.481,2149.077,3108.787,2241.296,3062.664,2288.575z"/>
			
				<linearGradient id="SVGID_00000000193126712611603090000017398171304956296377_" gradientUnits="userSpaceOnUse" x1="5496.4512" y1="1607.1429" x2="5455.7925" y2="2393.8889" gradientTransform="matrix(-1 0 0 1 8261.5361 0)">
				<stop  offset="0" style="stop-color:#FF9085"/>
				<stop  offset="1" style="stop-color:#FB6FBB"/>
			</linearGradient>
			<path style="opacity:0.3;fill:url(#SVGID_00000000193126712611603090000017398171304956296377_);" d="M3062.662,2288.575
				c-44.329,45.441-125.151,18.191-277.206,9.901c-116.242-6.338-211.715,1.808-274.558,9.765
				c-9.684-68.157-19.367-136.313-29.051-204.47c15.763-80.512,39.577-195.33,72.797-333.032
				c41.975-173.989,62.96-235.256,83.555-234.466c45.707,1.753,53.587,307.818,116.535,312.318
				c45.99,3.288,66.076-158.346,172.266-181.338c49.555-10.729,78.118,16.932,109.482-2.122
				c44.108-26.795,38.826-117.708,24.947-198.149c-47.783,289.079-24.476,491.926,7.835,626.888
				C3082.481,2149.077,3108.787,2241.296,3062.662,2288.575z"/>
			
				<linearGradient id="SVGID_00000048474272751983125870000016989753586776987838_" gradientUnits="userSpaceOnUse" x1="5360.3228" y1="1540.9921" x2="5316.3193" y2="2392.4548" gradientTransform="matrix(-1 0 0 1 8261.5361 0)">
				<stop  offset="0" style="stop-color:#FF9085"/>
				<stop  offset="1" style="stop-color:#FB6FBB"/>
			</linearGradient>
			<path style="fill:url(#SVGID_00000048474272751983125870000016989753586776987838_);" d="M3061.428,1466.981
				c19.265,9.916,172.424,92.098,207.17,274.055c23.459,122.851-10.248,274.491-106.708,344.327
				c-140.443,101.679-427.6,39.855-605.047-226.617c1.467-18.335,2.934-36.67,4.401-55.005
				c287.714,140.424,383.678,130.623,416.932,93.507c25.238-28.168,11.403-68.773,16.501-158.412
				C3001.374,1621.075,3034.557,1527.482,3061.428,1466.981z"/>
			
				<linearGradient id="SVGID_00000061459139887196281640000017005940982743561096_" gradientUnits="userSpaceOnUse" x1="5946.7515" y1="1566.4337" x2="5757.5371" y2="1762.2488" gradientTransform="matrix(-1 0 0 1 8261.5361 0)">
				<stop  offset="0" style="stop-color:#FF9085"/>
				<stop  offset="1" style="stop-color:#FB6FBB"/>
			</linearGradient>
			<path style="fill:url(#SVGID_00000061459139887196281640000017005940982743561096_);" d="M2604.215,1445.141
				c-120.958,61.843-188.535,141.206-221.985,187.724c-36.476,50.725-148.907,207.076-88.031,322.884
				c3.51,6.677,38.422,71.058,92.129,73.403c96.441,4.211,174.609-195.063,201.319-291.879
				C2620.405,1618.53,2614.378,1513.908,2604.215,1445.141z"/>
			
				<linearGradient id="SVGID_00000133529629505286842990000007331226804099980702_" gradientUnits="userSpaceOnUse" x1="2444.2349" y1="1927.0593" x2="2264.7683" y2="2346.5908">
				<stop  offset="0" style="stop-color:#FF9085"/>
				<stop  offset="1" style="stop-color:#FB6FBB"/>
			</linearGradient>
			<path style="fill:url(#SVGID_00000133529629505286842990000007331226804099980702_);" d="M2663.1,1494.561
				c-5.956,42.864-16.212,106.771-33.965,183.351c-42.206,182.058-69.489,292.958-156.24,334.459
				c-34.028,16.279-87.419,26.766-114.066,2.586c-57.232-51.936,39.207-236.311,44.003-245.319
				c23.056-43.3,55.654-83.727,119.909-162.813c44.018-54.178,81.794-97.803,108.056-127.507
				C2641.565,1484.4,2652.332,1489.481,2663.1,1494.561z"/>
			<g>
				
					<linearGradient id="SVGID_00000149350516178211412500000012075320410982373804_" gradientUnits="userSpaceOnUse" x1="2806.9998" y1="1363.0848" x2="2636.8567" y2="1525.0703">
					<stop  offset="0" style="stop-color:#FFC444"/>
					<stop  offset="0.2059" style="stop-color:#FDB248"/>
					<stop  offset="0.9964" style="stop-color:#F36F56"/>
				</linearGradient>
				<path style="fill:url(#SVGID_00000149350516178211412500000012075320410982373804_);" d="M2757.622,1285.189
					c1.567,34.818,6.923,62.212,11.606,80.918c5.364,21.432,8.695,26.865,12.806,31.199c6.189,6.524,15.323,11.785,65.855,21.489
					c27.498,5.279,30.98,4.909,31.723,7.569c3.624,12.982-67.987,61.711-145.018,55.002c-47.144-4.105-91.143-28.528-89.279-42.685
					c1.878-14.249,49.021-9.175,61.589-35.443c8.742-18.273-3.467-42.9-17.423-63.089
					C2700.675,1316.183,2746.43,1309.154,2757.622,1285.189z"/>
				<g>
					
						<linearGradient id="SVGID_00000090977803264968564860000018408305469404533921_" gradientUnits="userSpaceOnUse" x1="-2140.8857" y1="1904.7112" x2="-2229.5354" y2="1679.5569" gradientTransform="matrix(0.9743 0.2253 -0.2253 0.9743 5301.998 100.0224)">
						<stop  offset="0" style="stop-color:#311944"/>
						<stop  offset="1" style="stop-color:#6B3976"/>
					</linearGradient>
					<path style="fill:url(#SVGID_00000090977803264968564860000018408305469404533921_);" d="M2696.132,1285.226
						c-7.528-16.776-2.508-41.935,13.51-54.918c13.785-11.173,31.052-9.287,41.39-8.163c29.957,3.265,64.02,23.823,70.725,53.602
						c3.971,17.646-19.97,46.997-23.893,52.36c-4.441,6.063-10.243,7.17-16.284,11.144c-8.372,5.514-21.517,14.318-43.074,29.14
						c-0.086-5.839-0.573-13.154-2.131-21.317c-0.6-3.143-3.082-15.445-8.573-26.426
						C2716.808,1298.636,2703.269,1301.125,2696.132,1285.226z"/>
					
						<linearGradient id="SVGID_00000040544237671241517080000011281903414467154328_" gradientUnits="userSpaceOnUse" x1="2712.6575" y1="1301.4249" x2="2879.3044" y2="1546.1512">
						<stop  offset="0" style="stop-color:#FFC444"/>
						<stop  offset="0.9964" style="stop-color:#F36F56"/>
					</linearGradient>
					<path style="fill:url(#SVGID_00000040544237671241517080000011281903414467154328_);" d="M2766.762,1358.227
						c0,0-26.346,27.121-63.99,15.95c-33.703-10.002-21.275-87.858,4.274-99.17c8.526-3.775,23.637-2.712,34.751,3.313
						c6.565,3.559,8.277,7.013,19.117,12.617c9.999,5.173,13.267,4.677,15.861,8.104c3.243,4.29,4.301,13.234-7.495,34.138
						c8.029-5.123,16.439-5.88,21.395-1.998c0.79,0.623,2.775,2.753,3.547,5.475
						C2797.014,1346.505,2786.465,1355.877,2766.762,1358.227z"/>
					
						<linearGradient id="SVGID_00000036216309852573286730000004486907141016305309_" gradientUnits="userSpaceOnUse" x1="-2167.9639" y1="1915.4948" x2="-2256.7063" y2="1690.1051" gradientTransform="matrix(0.9743 0.2253 -0.2253 0.9743 5301.998 100.0224)">
						<stop  offset="0" style="stop-color:#311944"/>
						<stop  offset="1" style="stop-color:#6B3976"/>
					</linearGradient>
					<path style="fill:url(#SVGID_00000036216309852573286730000004486907141016305309_);" d="M2779.366,1294.805
						c-1.93,0.855,1.714,8.156,0.11,16.953c-3.111,17.076-24.842,33.484-42.695,31.237c-10.554-1.33-11.978-8.196-28.633-13.879
						c-10.313-3.517-19.414-4.172-25.222-4.221c-9.578,17.326-8.735,36.964,1.711,48.361c11.247,12.27,29.569,10.542,37.229,9.819
						c5.124-0.484,21.538-2.001,32.708-14.198c11.639-12.711,5.474-23.369,17.265-31.074c5.947-3.887,12.761-4.607,21.11-12.851
						c2.267-2.239,3.91-4.304,4.946-5.708C2791.196,1307.885,2782.16,1293.566,2779.366,1294.805z"/>
					<path style="fill:#FFFFFF;" d="M2693.783,1334.592c0,0,6.51,5.54,19.441,7.724c0.629,0.105,1.272,0.443,1.278,0.783
						c0.018,1.278-9.407,4.847-16.472,1.011c-5.015-2.727-8.032-8.746-7.017-9.873
						C2691.442,1333.762,2692.637,1334.109,2693.783,1334.592z"/>
				</g>
			</g>
			
				<linearGradient id="SVGID_00000042013259928181888800000013739261953231722145_" gradientUnits="userSpaceOnUse" x1="2637.3206" y1="1400.0123" x2="2743.3689" y2="1548.0139">
				<stop  offset="0" style="stop-color:#FFC444"/>
				<stop  offset="0.9964" style="stop-color:#F36F56"/>
			</linearGradient>
			<path style="fill:url(#SVGID_00000042013259928181888800000013739261953231722145_);" d="M2666.852,1354.093l-23.147,47.558
				c0,0-2.759,52.469-12.907,77.668l18.027,8.506c0,0,53.834-37.212,12.619-79.577
				C2661.444,1408.248,2677.853,1357.68,2666.852,1354.093z"/>
		</g>
	</g>
</g>
</svg>
